<mxfile host="app.diagrams.net" modified="2023-11-07T03:43:04.341Z" agent="Mozilla/5.0 (Windows NT 10.0; Win64; x64) AppleWebKit/537.36 (KHTML, like Gecko) Chrome/119.0.0.0 Safari/537.36" etag="ba_Sj2jv9lbr3WhyqzWc" version="22.0.8" type="github">
  <diagram name="Page-1" id="fbcf5db9-b524-4cd4-e4f3-379dc89c3999">
    <mxGraphModel dx="869" dy="459" grid="1" gridSize="10" guides="1" tooltips="1" connect="1" arrows="1" fold="1" page="1" pageScale="1" pageWidth="850" pageHeight="1100" background="none" math="0" shadow="0">
      <root>
        <mxCell id="0" />
        <mxCell id="1" parent="0" />
        <mxCell id="2a0f93b5c73ef8e7-1" value="" style="line;strokeWidth=10;direction=south;html=1;fillColor=none;fontSize=13;fontColor=#000000;align=center;strokeColor=#AE4132;" parent="1" vertex="1">
          <mxGeometry x="360" y="10" width="10" height="1015" as="geometry" />
        </mxCell>
        <mxCell id="2a0f93b5c73ef8e7-2" value="" style="rounded=1;whiteSpace=wrap;html=1;strokeColor=none;strokeWidth=1;fillColor=#F2931E;fontSize=13;fontColor=#FFFFFF;align=center;gradientColor=none;gradientDirection=east;verticalAlign=top;shadow=1;" parent="1" vertex="1">
          <mxGeometry x="140" y="30" width="220" height="85" as="geometry" />
        </mxCell>
        <mxCell id="2a0f93b5c73ef8e7-3" value="1" style="text;html=1;strokeColor=none;fillColor=none;align=center;verticalAlign=middle;whiteSpace=wrap;fontSize=30;fontColor=#FFFFFF;" parent="1" vertex="1">
          <mxGeometry x="150" y="63" width="40" height="20" as="geometry" />
        </mxCell>
        <mxCell id="2a0f93b5c73ef8e7-4" value="" style="rounded=1;whiteSpace=wrap;html=1;strokeColor=#2D7600;strokeWidth=1;fillColor=#60a917;fontSize=13;align=center;gradientDirection=east;verticalAlign=top;shadow=1;fontColor=#ffffff;" parent="1" vertex="1">
          <mxGeometry x="370" y="115" width="220" height="85" as="geometry" />
        </mxCell>
        <mxCell id="2a0f93b5c73ef8e7-5" value="2" style="text;html=1;strokeColor=none;fillColor=none;align=center;verticalAlign=middle;whiteSpace=wrap;fontSize=30;fontColor=#FFFFFF;" parent="1" vertex="1">
          <mxGeometry x="380" y="148" width="40" height="20" as="geometry" />
        </mxCell>
        <mxCell id="2a0f93b5c73ef8e7-6" value="" style="rounded=1;whiteSpace=wrap;html=1;strokeColor=none;strokeWidth=1;fillColor=#F2931E;fontSize=13;fontColor=#FFFFFF;align=center;gradientColor=none;gradientDirection=east;verticalAlign=top;shadow=1;" parent="1" vertex="1">
          <mxGeometry x="90" y="196" width="270" height="85" as="geometry" />
        </mxCell>
        <mxCell id="2a0f93b5c73ef8e7-7" value="3" style="text;html=1;strokeColor=none;fillColor=none;align=center;verticalAlign=middle;whiteSpace=wrap;fontSize=30;fontColor=#FFFFFF;" parent="1" vertex="1">
          <mxGeometry x="100" y="228.5" width="40" height="20" as="geometry" />
        </mxCell>
        <mxCell id="2a0f93b5c73ef8e7-8" value="" style="rounded=1;whiteSpace=wrap;html=1;strokeColor=none;strokeWidth=1;fillColor=#10739E;fontSize=13;fontColor=#FFFFFF;align=center;gradientColor=none;gradientDirection=east;verticalAlign=top;shadow=1;" parent="1" vertex="1">
          <mxGeometry x="530" y="440" width="260" height="85" as="geometry" />
        </mxCell>
        <mxCell id="2a0f93b5c73ef8e7-9" value="5" style="text;html=1;strokeColor=none;fillColor=none;align=center;verticalAlign=middle;whiteSpace=wrap;fontSize=30;fontColor=#FFFFFF;" parent="1" vertex="1">
          <mxGeometry x="540" y="473" width="40" height="20" as="geometry" />
        </mxCell>
        <mxCell id="2a0f93b5c73ef8e7-10" value="" style="rounded=1;whiteSpace=wrap;html=1;strokeColor=none;strokeWidth=1;fillColor=#F2931E;fontSize=13;fontColor=#FFFFFF;align=center;gradientColor=none;gradientDirection=east;verticalAlign=top;shadow=1;" parent="1" vertex="1">
          <mxGeometry x="140" y="444" width="220" height="85" as="geometry" />
        </mxCell>
        <mxCell id="2a0f93b5c73ef8e7-11" value="5" style="text;html=1;strokeColor=none;fillColor=none;align=center;verticalAlign=middle;whiteSpace=wrap;fontSize=30;fontColor=#FFFFFF;" parent="1" vertex="1">
          <mxGeometry x="140" y="481" width="40" height="20" as="geometry" />
        </mxCell>
        <mxCell id="2a0f93b5c73ef8e7-12" value="" style="rounded=1;whiteSpace=wrap;html=1;strokeColor=none;strokeWidth=1;fillColor=#10739E;fontSize=13;fontColor=#FFFFFF;align=center;gradientColor=none;gradientDirection=east;verticalAlign=top;shadow=1;" parent="1" vertex="1">
          <mxGeometry x="340" y="705" width="220" height="85" as="geometry" />
        </mxCell>
        <mxCell id="2a0f93b5c73ef8e7-13" value="6" style="text;html=1;strokeColor=none;fillColor=none;align=center;verticalAlign=middle;whiteSpace=wrap;fontSize=30;fontColor=#FFFFFF;" parent="1" vertex="1">
          <mxGeometry x="350" y="738" width="40" height="20" as="geometry" />
        </mxCell>
        <mxCell id="2a0f93b5c73ef8e7-14" value="" style="rounded=1;whiteSpace=wrap;html=1;strokeColor=none;strokeWidth=1;fillColor=#F2931E;fontSize=13;fontColor=#FFFFFF;align=center;gradientColor=none;gradientDirection=east;verticalAlign=top;shadow=1;" parent="1" vertex="1">
          <mxGeometry x="170" y="830" width="220" height="85" as="geometry" />
        </mxCell>
        <mxCell id="2a0f93b5c73ef8e7-15" value="7" style="text;html=1;strokeColor=none;fillColor=none;align=center;verticalAlign=middle;whiteSpace=wrap;fontSize=30;fontColor=#FFFFFF;" parent="1" vertex="1">
          <mxGeometry x="180" y="863" width="40" height="20" as="geometry" />
        </mxCell>
        <mxCell id="2a0f93b5c73ef8e7-16" value="" style="rounded=1;whiteSpace=wrap;html=1;strokeColor=none;strokeWidth=1;fillColor=#10739E;fontSize=13;fontColor=#FFFFFF;align=center;gradientColor=none;gradientDirection=east;verticalAlign=top;shadow=1;" parent="1" vertex="1">
          <mxGeometry x="340" y="945" width="220" height="85" as="geometry" />
        </mxCell>
        <mxCell id="2a0f93b5c73ef8e7-17" value="8" style="text;html=1;strokeColor=none;fillColor=none;align=center;verticalAlign=middle;whiteSpace=wrap;fontSize=30;fontColor=#FFFFFF;" parent="1" vertex="1">
          <mxGeometry x="350" y="978" width="40" height="20" as="geometry" />
        </mxCell>
        <mxCell id="2a0f93b5c73ef8e7-18" value="&lt;h1&gt;Base_HeightField&lt;/h1&gt;&lt;p&gt;只创建初始地形或者读取地形数据&lt;/p&gt;" style="text;html=1;spacing=5;spacingTop=-20;whiteSpace=wrap;overflow=hidden;strokeColor=none;strokeWidth=4;fillColor=none;gradientColor=#007FFF;fontSize=9;fontColor=#FFFFFF;align=center;" parent="1" vertex="1">
          <mxGeometry x="190" y="34" width="160" height="77" as="geometry" />
        </mxCell>
        <mxCell id="2a0f93b5c73ef8e7-19" value="&lt;h1&gt;人工调整、放置地形block&lt;/h1&gt;" style="text;html=1;spacing=5;spacingTop=-20;whiteSpace=wrap;overflow=hidden;strokeColor=none;strokeWidth=4;fillColor=none;gradientColor=#007FFF;fontSize=9;fontColor=#FFFFFF;align=center;" parent="1" vertex="1">
          <mxGeometry x="430" y="119" width="160" height="77" as="geometry" />
        </mxCell>
        <mxCell id="2a0f93b5c73ef8e7-20" value="&lt;h1&gt;HeightField_ProjectTool&lt;/h1&gt;&lt;p&gt;投射地形block内容&lt;/p&gt;" style="text;html=1;spacing=5;spacingTop=-20;whiteSpace=wrap;overflow=hidden;strokeColor=none;strokeWidth=4;fillColor=none;gradientColor=#007FFF;fontSize=9;fontColor=#FFFFFF;align=center;" parent="1" vertex="1">
          <mxGeometry x="130" y="202.5" width="220" height="46" as="geometry" />
        </mxCell>
        <mxCell id="2a0f93b5c73ef8e7-21" value="&lt;h1&gt;Top_HeightField_Split&lt;/h1&gt;&lt;p&gt;Top中拆分地块&lt;/p&gt;" style="text;html=1;spacing=5;spacingTop=-20;whiteSpace=wrap;overflow=hidden;strokeColor=none;strokeWidth=4;fillColor=none;gradientColor=#007FFF;fontSize=9;fontColor=#FFFFFF;align=center;" parent="1" vertex="1">
          <mxGeometry x="580" y="444" width="200" height="77" as="geometry" />
        </mxCell>
        <mxCell id="2a0f93b5c73ef8e7-22" value="&lt;h1&gt;HeightField_Area&lt;/h1&gt;&lt;p&gt;划分地块中不同特征区域（手动数据影响或者自动判断区域）&lt;/p&gt;" style="text;html=1;spacing=5;spacingTop=-20;whiteSpace=wrap;overflow=hidden;strokeColor=none;strokeWidth=4;fillColor=none;gradientColor=#007FFF;fontSize=9;fontColor=#FFFFFF;align=center;" parent="1" vertex="1">
          <mxGeometry x="180" y="452" width="160" height="77" as="geometry" />
        </mxCell>
        <mxCell id="2a0f93b5c73ef8e7-23" value="&lt;h1&gt;Heading&lt;/h1&gt;&lt;p&gt;Lorem ipsum dolor sit amet, consectetur adipisicing elit, sed do eiusmod tempor incididunt ut labore et dolore magna aliqua.&lt;/p&gt;" style="text;html=1;spacing=5;spacingTop=-20;whiteSpace=wrap;overflow=hidden;strokeColor=none;strokeWidth=4;fillColor=none;gradientColor=#007FFF;fontSize=9;fontColor=#FFFFFF;align=center;" parent="1" vertex="1">
          <mxGeometry x="390" y="709" width="160" height="77" as="geometry" />
        </mxCell>
        <mxCell id="2a0f93b5c73ef8e7-24" value="&lt;h1&gt;Heading&lt;/h1&gt;&lt;p&gt;Lorem ipsum dolor sit amet, consectetur adipisicing elit, sed do eiusmod tempor incididunt ut labore et dolore magna aliqua.&lt;/p&gt;" style="text;html=1;spacing=5;spacingTop=-20;whiteSpace=wrap;overflow=hidden;strokeColor=none;strokeWidth=4;fillColor=none;gradientColor=#007FFF;fontSize=9;fontColor=#FFFFFF;align=center;" parent="1" vertex="1">
          <mxGeometry x="220" y="834" width="160" height="77" as="geometry" />
        </mxCell>
        <mxCell id="2a0f93b5c73ef8e7-25" value="&lt;h1&gt;Heading&lt;/h1&gt;&lt;p&gt;Lorem ipsum dolor sit amet, consectetur adipisicing elit, sed do eiusmod tempor incididunt ut labore et dolore magna aliqua.&lt;/p&gt;" style="text;html=1;spacing=5;spacingTop=-20;whiteSpace=wrap;overflow=hidden;strokeColor=none;strokeWidth=4;fillColor=none;gradientColor=#007FFF;fontSize=9;fontColor=#FFFFFF;align=center;" parent="1" vertex="1">
          <mxGeometry x="390" y="950" width="160" height="77" as="geometry" />
        </mxCell>
        <mxCell id="1pIIYmRZsIXQ7U8aym6c-1" value="&lt;b&gt;&lt;font style=&quot;font-size: 18px;&quot;&gt;BlockShape&lt;/font&gt;&lt;/b&gt;" style="text;html=1;strokeColor=none;fillColor=none;align=center;verticalAlign=middle;whiteSpace=wrap;rounded=0;shadow=1;" vertex="1" parent="1">
          <mxGeometry x="370" y="390" width="120" height="40" as="geometry" />
        </mxCell>
        <mxCell id="1pIIYmRZsIXQ7U8aym6c-2" value="" style="rounded=1;whiteSpace=wrap;html=1;strokeColor=none;strokeWidth=1;fillColor=#F2931E;fontSize=13;fontColor=#FFFFFF;align=center;gradientColor=none;gradientDirection=east;verticalAlign=top;shadow=1;" vertex="1" parent="1">
          <mxGeometry x="90" y="300" width="270" height="85" as="geometry" />
        </mxCell>
        <mxCell id="1pIIYmRZsIXQ7U8aym6c-3" value="4" style="text;html=1;strokeColor=none;fillColor=none;align=center;verticalAlign=middle;whiteSpace=wrap;fontSize=30;fontColor=#FFFFFF;" vertex="1" parent="1">
          <mxGeometry x="100" y="332.5" width="40" height="20" as="geometry" />
        </mxCell>
        <mxCell id="1pIIYmRZsIXQ7U8aym6c-4" value="&lt;h1&gt;HeightField_BigShape&lt;/h1&gt;&lt;p&gt;简单处理地形，加简单的noise，柔化投射结果&lt;/p&gt;" style="text;html=1;spacing=5;spacingTop=-20;whiteSpace=wrap;overflow=hidden;strokeColor=none;strokeWidth=4;fillColor=none;gradientColor=#007FFF;fontSize=9;fontColor=#FFFFFF;align=center;" vertex="1" parent="1">
          <mxGeometry x="130" y="306.5" width="220" height="46" as="geometry" />
        </mxCell>
        <mxCell id="1pIIYmRZsIXQ7U8aym6c-5" value="" style="line;strokeWidth=2;direction=south;html=1;fillColor=#dae8fc;fontSize=13;align=center;strokeColor=#6c8ebf;rotation=90;" vertex="1" parent="1">
          <mxGeometry x="425" y="79" width="10" height="707" as="geometry" />
        </mxCell>
        <mxCell id="1pIIYmRZsIXQ7U8aym6c-6" value="" style="rounded=1;whiteSpace=wrap;html=1;strokeColor=none;strokeWidth=1;fillColor=#F2931E;fontSize=13;fontColor=#FFFFFF;align=center;gradientColor=none;gradientDirection=east;verticalAlign=top;shadow=1;" vertex="1" parent="1">
          <mxGeometry x="70" y="548" width="290" height="82" as="geometry" />
        </mxCell>
        <mxCell id="1pIIYmRZsIXQ7U8aym6c-7" value="6" style="text;html=1;strokeColor=none;fillColor=none;align=center;verticalAlign=middle;whiteSpace=wrap;fontSize=30;fontColor=#FFFFFF;" vertex="1" parent="1">
          <mxGeometry x="70" y="579" width="40" height="20" as="geometry" />
        </mxCell>
        <mxCell id="1pIIYmRZsIXQ7U8aym6c-8" value="&lt;h1&gt;HeightField_mountainSnow&lt;/h1&gt;&lt;p&gt;雪山地形&lt;/p&gt;" style="text;html=1;spacing=5;spacingTop=-20;whiteSpace=wrap;overflow=hidden;strokeColor=none;strokeWidth=4;fillColor=none;gradientColor=#007FFF;fontSize=9;fontColor=#FFFFFF;align=center;" vertex="1" parent="1">
          <mxGeometry x="100" y="556" width="260" height="77" as="geometry" />
        </mxCell>
      </root>
    </mxGraphModel>
  </diagram>
</mxfile>
